<?xml version="1.0" encoding="utf-8"?>
<!-- Generator: Adobe Illustrator 16.0.0, SVG Export Plug-In . SVG Version: 6.00 Build 0)  -->
<!DOCTYPE svg PUBLIC "-//W3C//DTD SVG 1.1//EN" "http://www.w3.org/Graphics/SVG/1.1/DTD/svg11.dtd">
<svg version="1.1" id="레이어_1" xmlns="http://www.w3.org/2000/svg" xmlns:xlink="http://www.w3.org/1999/xlink" x="0px"
	 y="0px" width="25px" height="25px" viewBox="0 0 25 25" enable-background="new 0 0 25 25" xml:space="preserve">
<g>
	<g>
		<path fill="#FFFFFF" d="M12.5,24C6.159,24,1,18.841,1,12.5C1,6.159,6.159,1,12.5,1C18.841,1,24,6.159,24,12.5
			C24,18.841,18.841,24,12.5,24z"/>
		<path fill="#2BC48A" d="M12.5,2C18.29,2,23,6.71,23,12.5C23,18.29,18.29,23,12.5,23C6.71,23,2,18.29,2,12.5C2,6.71,6.71,2,12.5,2
			 M12.5,0C5.597,0,0,5.597,0,12.5C0,19.404,5.597,25,12.5,25C19.404,25,25,19.404,25,12.5C25,5.597,19.404,0,12.5,0L12.5,0z"/>
	</g>
	
		<polyline fill="#FFFFFF" stroke="#2BC48A" stroke-width="2" stroke-linecap="round" stroke-linejoin="round" stroke-miterlimit="10" points="
		7.637,12.479 11.874,17.722 17.363,7.279 	"/>
</g>
</svg>
