<?xml version="1.0" encoding="utf-8"?>
<!-- Generator: Adobe Illustrator 16.0.0, SVG Export Plug-In . SVG Version: 6.00 Build 0)  -->
<!DOCTYPE svg PUBLIC "-//W3C//DTD SVG 1.1//EN" "http://www.w3.org/Graphics/SVG/1.1/DTD/svg11.dtd">
<svg version="1.1" id="레이어_1" xmlns="http://www.w3.org/2000/svg" xmlns:xlink="http://www.w3.org/1999/xlink" x="0px"
	 y="0px" width="90px" height="90px" viewBox="0 0 90 90" enable-background="new 0 0 90 90" xml:space="preserve">
<path fill="#2BC48A" d="M0,45C0,20.145,20.145,0,45,0s45,20.145,45,45S69.855,90,45,90S0,69.855,0,45z M65.355,37.23
	c1.916-1.916,1.916-5.045,0-6.961s-5.045-1.916-6.961,0l-19.02,19.02l-7.77-7.77c-1.916-1.916-5.045-1.916-6.961,0
	s-1.916,5.045,0,6.961l11.25,11.25c1.916,1.916,5.045,1.916,6.961,0L65.355,37.23z"/>
</svg>
